<svg width="220" height="113" viewBox="0 0 220 113" fill="none" xmlns="http://www.w3.org/2000/svg">
<g filter="url(#filter0_d_46_1857)">
<rect x="31" y="27" width="158" height="52" rx="26" fill="#0285E4"/>
<path d="M82.598 59.144C80.618 59.144 79.034 58.61 77.846 57.542L78.422 56.408C79.046 56.936 79.682 57.314 80.33 57.542C80.99 57.77 81.752 57.884 82.616 57.884C83.636 57.884 84.422 57.686 84.974 57.29C85.526 56.894 85.802 56.336 85.802 55.616C85.802 55.196 85.67 54.854 85.406 54.59C85.142 54.326 84.794 54.116 84.362 53.96C83.93 53.804 83.348 53.642 82.616 53.474C81.632 53.246 80.822 53.006 80.186 52.754C79.562 52.502 79.052 52.142 78.656 51.674C78.272 51.206 78.08 50.594 78.08 49.838C78.08 49.118 78.266 48.482 78.638 47.93C79.022 47.366 79.562 46.934 80.258 46.634C80.966 46.322 81.782 46.166 82.706 46.166C83.582 46.166 84.398 46.304 85.154 46.58C85.922 46.856 86.57 47.252 87.098 47.768L86.54 48.902C85.94 48.386 85.328 48.014 84.704 47.786C84.092 47.546 83.426 47.426 82.706 47.426C81.722 47.426 80.948 47.636 80.384 48.056C79.832 48.464 79.556 49.04 79.556 49.784C79.556 50.42 79.802 50.9 80.294 51.224C80.786 51.548 81.53 51.824 82.526 52.052C83.618 52.316 84.476 52.562 85.1 52.79C85.724 53.006 86.24 53.336 86.648 53.78C87.068 54.224 87.278 54.818 87.278 55.562C87.278 56.282 87.086 56.912 86.702 57.452C86.33 57.992 85.79 58.412 85.082 58.712C84.374 59 83.546 59.144 82.598 59.144ZM89.6594 59V50.234H91.1174V59H89.6594ZM89.5154 46.436H91.2794V48.074H89.5154V46.436ZM101.891 50.234V58.406C101.891 59.714 101.555 60.698 100.883 61.358C100.211 62.03 99.215 62.366 97.895 62.366C96.359 62.366 95.069 61.97 94.025 61.178L94.511 60.098C95.099 60.482 95.651 60.758 96.167 60.926C96.683 61.094 97.259 61.178 97.895 61.178C98.735 61.178 99.371 60.95 99.803 60.494C100.235 60.05 100.451 59.396 100.451 58.532V56.984C100.199 57.548 99.809 57.98 99.281 58.28C98.765 58.58 98.153 58.73 97.445 58.73C96.677 58.73 95.993 58.55 95.393 58.19C94.805 57.83 94.343 57.32 94.007 56.66C93.683 56 93.521 55.238 93.521 54.374C93.521 53.51 93.683 52.748 94.007 52.088C94.343 51.428 94.805 50.918 95.393 50.558C95.993 50.198 96.677 50.018 97.445 50.018C98.141 50.018 98.747 50.168 99.263 50.468C99.779 50.768 100.169 51.194 100.433 51.746V50.234H101.891ZM97.733 57.524C98.573 57.524 99.233 57.248 99.713 56.696C100.193 56.132 100.433 55.358 100.433 54.374C100.433 53.402 100.193 52.64 99.713 52.088C99.245 51.524 98.585 51.242 97.733 51.242C96.881 51.242 96.209 51.524 95.717 52.088C95.237 52.64 94.997 53.402 94.997 54.374C94.997 55.358 95.237 56.132 95.717 56.696C96.209 57.248 96.881 57.524 97.733 57.524ZM109.2 50.018C111.3 50.018 112.35 51.176 112.35 53.492V59H110.892V53.582C110.892 52.766 110.73 52.172 110.406 51.8C110.094 51.428 109.59 51.242 108.894 51.242C108.09 51.242 107.448 51.488 106.968 51.98C106.488 52.472 106.248 53.138 106.248 53.978V59H104.79V50.234H106.23V51.674C106.518 51.134 106.92 50.726 107.436 50.45C107.952 50.162 108.54 50.018 109.2 50.018ZM125.227 59.144C123.571 59.144 122.317 58.712 121.465 57.848C120.613 56.984 120.187 55.712 120.187 54.032V46.31H121.645V54.158C121.645 55.394 121.945 56.324 122.545 56.948C123.157 57.572 124.051 57.884 125.227 57.884C126.403 57.884 127.291 57.572 127.891 56.948C128.491 56.324 128.791 55.394 128.791 54.158V46.31H130.267V54.032C130.267 55.7 129.835 56.972 128.971 57.848C128.119 58.712 126.871 59.144 125.227 59.144ZM137.696 50.018C138.464 50.018 139.142 50.21 139.73 50.594C140.318 50.978 140.774 51.518 141.098 52.214C141.422 52.898 141.584 53.696 141.584 54.608C141.584 55.52 141.422 56.318 141.098 57.002C140.774 57.674 140.318 58.196 139.73 58.568C139.154 58.94 138.476 59.126 137.696 59.126C137.012 59.126 136.412 58.976 135.896 58.676C135.392 58.376 135.008 57.95 134.744 57.398V62.24H133.286V50.234H134.744V51.746C135.008 51.194 135.392 50.768 135.896 50.468C136.412 50.168 137.012 50.018 137.696 50.018ZM137.408 57.92C138.26 57.92 138.92 57.632 139.388 57.056C139.856 56.48 140.09 55.664 140.09 54.608C140.09 53.552 139.856 52.73 139.388 52.142C138.92 51.542 138.26 51.242 137.408 51.242C136.556 51.242 135.896 51.53 135.428 52.106C134.972 52.682 134.744 53.504 134.744 54.572C134.744 55.64 134.972 56.468 135.428 57.056C135.896 57.632 136.556 57.92 137.408 57.92Z" fill="white"/>
</g>
<defs>
<filter id="filter0_d_46_1857" x="0" y="0" width="220" height="114" filterUnits="userSpaceOnUse" color-interpolation-filters="sRGB">
<feFlood flood-opacity="0" result="BackgroundImageFix"/>
<feColorMatrix in="SourceAlpha" type="matrix" values="0 0 0 0 0 0 0 0 0 0 0 0 0 0 0 0 0 0 127 0" result="hardAlpha"/>
<feOffset dy="4"/>
<feGaussianBlur stdDeviation="15.5"/>
<feColorMatrix type="matrix" values="0 0 0 0 0 0 0 0 0 0 0 0 0 0 0 0 0 0 0.15 0"/>
<feBlend mode="normal" in2="BackgroundImageFix" result="effect1_dropShadow_46_1857"/>
<feBlend mode="normal" in="SourceGraphic" in2="effect1_dropShadow_46_1857" result="shape"/>
</filter>
</defs>
</svg>
