<svg width="226" height="226" viewBox="0 0 226 226" fill="none" xmlns="http://www.w3.org/2000/svg">
<g clip-path="url(#clip0_46_2111)">
<path fill-rule="evenodd" clip-rule="evenodd" d="M113 226C50.5918 226 0 175.408 0 113C0 50.5918 50.5918 0 113 0C175.408 0 226 50.5918 226 113C226 175.408 175.408 226 113 226ZM113 216C169.885 216 216 169.885 216 113C216 56.1147 169.885 10 113 10C56.1147 10 10 56.1147 10 113C10 169.885 56.1147 216 113 216Z" fill="#EDF0F4"/>
<path fill-rule="evenodd" clip-rule="evenodd" d="M113 0C110.239 0 108 2.23857 108 5C108 7.76143 110.239 10 113 10C169.885 10 216 56.1147 216 113C216 169.885 169.885 216 113 216C59.1971 216 14.5664 174.587 10.3279 121.283C10.109 118.53 7.70005 116.476 4.94731 116.695C2.19458 116.914 0.140486 119.323 0.359373 122.075C5.01053 180.568 53.9716 226 113 226C175.408 226 226 175.408 226 113C226 50.5918 175.408 0 113 0Z" fill="#826AF9"/>
<path fill-rule="evenodd" clip-rule="evenodd" d="M113 210C59.4284 210 16 166.572 16 113C16 59.4284 59.4284 16 113 16C166.572 16 210 59.4284 210 113C210 166.572 166.572 210 113 210ZM113 200C161.049 200 200 161.049 200 113C200 64.9512 161.049 26 113 26C64.9512 26 26 64.9512 26 113C26 161.049 64.9512 200 113 200Z" fill="#EDF0F4"/>
<path fill-rule="evenodd" clip-rule="evenodd" d="M113 16C110.239 16 108 18.2386 108 21C108 23.7614 110.239 26 113 26C161.049 26 200 64.9512 200 113C200 161.049 161.049 200 113 200C64.9512 200 26 161.049 26 113C26 94.5741 31.7359 77.0243 42.2407 62.3705C43.8495 60.1262 43.3344 57.0026 41.0901 55.3937C38.8458 53.7848 35.7221 54.3 34.1132 56.5443C22.4006 72.883 16 92.4666 16 113C16 166.572 59.4284 210 113 210C166.572 210 210 166.572 210 113C210 59.4284 166.572 16 113 16Z" fill="#9E86FF"/>
<path fill-rule="evenodd" clip-rule="evenodd" d="M113 195C67.7127 195 31 158.287 31 113C31 67.7127 67.7127 31 113 31C158.287 31 195 67.7127 195 113C195 158.287 158.287 195 113 195ZM113 185C152.765 185 185 152.765 185 113C185 73.2355 152.765 41 113 41C73.2355 41 41 73.2355 41 113C41 152.765 73.2355 185 113 185Z" fill="#EDF0F4"/>
<path fill-rule="evenodd" clip-rule="evenodd" d="M113 31C110.239 31 108 33.2386 108 36C108 38.7614 110.239 41 113 41C152.765 41 185 73.2355 185 113C185 152.765 152.765 185 113 185C73.2355 185 41 152.765 41 113C41 87.9649 53.8742 65.1447 74.6684 52.0399C77.0046 50.5676 77.7049 47.4802 76.2326 45.144C74.7603 42.8078 71.6729 42.1075 69.3367 43.5798C45.6663 58.4972 31 84.4941 31 113C31 158.287 67.7127 195 113 195C158.287 195 195 158.287 195 113C195 67.7126 158.287 31 113 31Z" fill="#F7D2FF"/>
<g clip-path="url(#clip1_46_2111)">
<path d="M83.2132 104.26C83.2132 103.726 83.0634 103.303 82.764 102.99C82.471 102.671 81.9697 102.378 81.26 102.111C80.5504 101.844 79.9384 101.581 79.4241 101.32C78.9098 101.053 78.4671 100.751 78.096 100.412C77.7314 100.067 77.4449 99.6634 77.2366 99.2012C77.0348 98.7389 76.9339 98.1888 76.9339 97.5508C76.9339 96.4505 77.2854 95.5488 77.9886 94.8457C78.6917 94.1426 79.6259 93.7324 80.7913 93.6152V91.5254H82.3538V93.6445C83.5061 93.8073 84.4078 94.2891 85.0589 95.0898C85.7099 95.8841 86.0354 96.916 86.0354 98.1855H83.2132C83.2132 97.4043 83.0504 96.8216 82.7249 96.4375C82.4059 96.0469 81.9762 95.8516 81.4358 95.8516C80.902 95.8516 80.4886 96.0046 80.1956 96.3105C79.9026 96.61 79.7561 97.0267 79.7561 97.5605C79.7561 98.0553 79.8994 98.4525 80.1858 98.752C80.4723 99.0514 81.0029 99.3574 81.7776 99.6699C82.5589 99.9824 83.2002 100.279 83.7015 100.559C84.2028 100.832 84.6259 101.145 84.971 101.496C85.316 101.841 85.5797 102.238 85.762 102.688C85.9443 103.13 86.0354 103.648 86.0354 104.24C86.0354 105.347 85.6904 106.245 85.0003 106.936C84.3102 107.626 83.3597 108.033 82.1487 108.156V110.1H80.596V108.166C79.2613 108.023 78.2262 107.551 77.4905 106.75C76.7613 105.943 76.3968 104.872 76.3968 103.537H79.219C79.219 104.312 79.4013 104.908 79.7659 105.324C80.137 105.734 80.6676 105.939 81.3577 105.939C81.9306 105.939 82.3831 105.79 82.7151 105.49C83.0472 105.184 83.2132 104.774 83.2132 104.26ZM97.6175 95.3633L92.1194 108H89.1409L94.6487 96.0664H87.5784V93.7812H97.6175V95.3633ZM102.305 99.6406H103.809C104.525 99.6406 105.056 99.4616 105.401 99.1035C105.746 98.7454 105.918 98.2702 105.918 97.6777C105.918 97.1048 105.746 96.6589 105.401 96.3398C105.062 96.0208 104.593 95.8613 103.994 95.8613C103.454 95.8613 103.002 96.0111 102.637 96.3105C102.272 96.6035 102.09 96.9876 102.09 97.4629H99.2679C99.2679 96.7207 99.4664 96.0566 99.8636 95.4707C100.267 94.8783 100.827 94.416 101.543 94.084C102.266 93.752 103.06 93.5859 103.926 93.5859C105.43 93.5859 106.608 93.9473 107.461 94.6699C108.314 95.3861 108.741 96.3757 108.741 97.6387C108.741 98.2897 108.542 98.8887 108.145 99.4355C107.748 99.9824 107.227 100.402 106.582 100.695C107.383 100.982 107.979 101.411 108.369 101.984C108.767 102.557 108.965 103.234 108.965 104.016C108.965 105.279 108.503 106.291 107.578 107.053C106.66 107.814 105.443 108.195 103.926 108.195C102.507 108.195 101.345 107.821 100.44 107.072C99.5413 106.324 99.0921 105.334 99.0921 104.104H101.914C101.914 104.637 102.113 105.074 102.51 105.412C102.914 105.751 103.408 105.92 103.994 105.92C104.665 105.92 105.189 105.744 105.567 105.393C105.951 105.035 106.143 104.562 106.143 103.977C106.143 102.557 105.362 101.848 103.799 101.848H102.305V99.6406ZM111.768 111.564L110.293 110.793L110.645 110.158C111.081 109.364 111.306 108.573 111.319 107.785V105.598H113.701L113.692 107.551C113.685 108.273 113.503 109.003 113.145 109.738C112.787 110.474 112.328 111.083 111.768 111.564ZM122.403 102.316C121.667 103.039 120.808 103.4 119.825 103.4C118.568 103.4 117.562 102.971 116.807 102.111C116.052 101.245 115.674 100.08 115.674 98.6152C115.674 97.6842 115.876 96.8314 116.28 96.0566C116.69 95.2754 117.259 94.6699 117.989 94.2402C118.718 93.804 119.538 93.5859 120.45 93.5859C121.387 93.5859 122.22 93.8203 122.95 94.2891C123.679 94.7578 124.245 95.4316 124.649 96.3105C125.052 97.1895 125.257 98.1953 125.264 99.3281V100.373C125.264 102.743 124.675 104.605 123.496 105.959C122.318 107.313 120.648 108.036 118.487 108.127L117.793 108.137V105.783L118.418 105.773C120.873 105.663 122.201 104.51 122.403 102.316ZM120.518 101.242C120.974 101.242 121.364 101.125 121.69 100.891C122.022 100.656 122.272 100.373 122.442 100.041V98.8789C122.442 97.9219 122.259 97.1797 121.895 96.6523C121.53 96.125 121.042 95.8613 120.43 95.8613C119.864 95.8613 119.398 96.1217 119.033 96.6426C118.669 97.1569 118.487 97.8047 118.487 98.5859C118.487 99.3607 118.662 99.9987 119.014 100.5C119.372 100.995 119.873 101.242 120.518 101.242ZM133.887 102.316C133.151 103.039 132.292 103.4 131.309 103.4C130.052 103.4 129.047 102.971 128.291 102.111C127.536 101.245 127.158 100.08 127.158 98.6152C127.158 97.6842 127.36 96.8314 127.764 96.0566C128.174 95.2754 128.744 94.6699 129.473 94.2402C130.202 93.804 131.022 93.5859 131.934 93.5859C132.871 93.5859 133.705 93.8203 134.434 94.2891C135.163 94.7578 135.729 95.4316 136.133 96.3105C136.537 97.1895 136.742 98.1953 136.748 99.3281V100.373C136.748 102.743 136.159 104.605 134.981 105.959C133.802 107.313 132.132 108.036 129.971 108.127L129.278 108.137V105.783L129.903 105.773C132.357 105.663 133.685 104.51 133.887 102.316ZM132.002 101.242C132.458 101.242 132.849 101.125 133.174 100.891C133.506 100.656 133.757 100.373 133.926 100.041V98.8789C133.926 97.9219 133.744 97.1797 133.379 96.6523C133.015 96.125 132.526 95.8613 131.914 95.8613C131.348 95.8613 130.882 96.1217 130.518 96.6426C130.153 97.1569 129.971 97.8047 129.971 98.5859C129.971 99.3607 130.147 99.9987 130.498 100.5C130.856 100.995 131.358 101.242 132.002 101.242ZM147.119 102.648H148.731V104.924H147.119V108H144.297V104.924H138.467L138.34 103.146L144.268 93.7812H147.119V102.648ZM141.153 102.648H144.297V97.6289L144.112 97.9512L141.153 102.648Z" fill="#505D6F"/>
<path d="M89.7451 129.604H85.5684V134H84.2559V124.047H90.4219V125.127H85.5684V128.531H89.7451V129.604ZM96.1299 134C96.057 133.854 95.9977 133.594 95.9521 133.221C95.3643 133.831 94.6624 134.137 93.8467 134.137C93.1175 134.137 92.5182 133.932 92.0488 133.521C91.584 133.107 91.3516 132.583 91.3516 131.949C91.3516 131.179 91.6432 130.582 92.2266 130.158C92.8145 129.73 93.6393 129.516 94.7012 129.516H95.9316V128.935C95.9316 128.493 95.7995 128.142 95.5352 127.882C95.2708 127.618 94.8812 127.485 94.3662 127.485C93.915 127.485 93.5368 127.599 93.2314 127.827C92.9261 128.055 92.7734 128.331 92.7734 128.654H91.502C91.502 128.285 91.6318 127.93 91.8916 127.588C92.1559 127.242 92.5114 126.968 92.958 126.768C93.4092 126.567 93.9036 126.467 94.4414 126.467C95.2936 126.467 95.9613 126.681 96.4443 127.109C96.9274 127.533 97.1781 128.119 97.1963 128.866V132.271C97.1963 132.95 97.2829 133.49 97.4561 133.891V134H96.1299ZM94.0312 133.036C94.4277 133.036 94.8037 132.934 95.1592 132.729C95.5146 132.523 95.7721 132.257 95.9316 131.929V130.411H94.9404C93.391 130.411 92.6162 130.865 92.6162 131.771C92.6162 132.168 92.7484 132.478 93.0127 132.701C93.277 132.924 93.6165 133.036 94.0312 133.036ZM102.146 133.104C102.597 133.104 102.991 132.968 103.328 132.694C103.665 132.421 103.852 132.079 103.889 131.669H105.085C105.062 132.093 104.916 132.496 104.647 132.879C104.379 133.262 104.019 133.567 103.567 133.795C103.121 134.023 102.647 134.137 102.146 134.137C101.138 134.137 100.336 133.802 99.7393 133.132C99.1468 132.457 98.8506 131.537 98.8506 130.37V130.158C98.8506 129.438 98.9827 128.798 99.2471 128.237C99.5114 127.677 99.8896 127.242 100.382 126.932C100.879 126.622 101.464 126.467 102.139 126.467C102.968 126.467 103.656 126.715 104.203 127.212C104.755 127.709 105.049 128.354 105.085 129.146H103.889C103.852 128.668 103.67 128.276 103.342 127.971C103.018 127.661 102.617 127.506 102.139 127.506C101.496 127.506 100.997 127.738 100.642 128.203C100.291 128.663 100.115 129.331 100.115 130.206V130.445C100.115 131.298 100.291 131.954 100.642 132.414C100.993 132.874 101.494 133.104 102.146 133.104ZM109.576 134.137C108.574 134.137 107.758 133.809 107.129 133.152C106.5 132.492 106.186 131.61 106.186 130.507V130.274C106.186 129.541 106.325 128.887 106.603 128.312C106.885 127.734 107.277 127.283 107.778 126.959C108.284 126.631 108.831 126.467 109.419 126.467C110.381 126.467 111.128 126.784 111.661 127.417C112.194 128.05 112.461 128.957 112.461 130.138V130.664H107.45C107.468 131.393 107.68 131.983 108.086 132.435C108.496 132.881 109.016 133.104 109.645 133.104C110.091 133.104 110.469 133.013 110.779 132.831C111.089 132.649 111.36 132.407 111.593 132.106L112.365 132.708C111.745 133.66 110.816 134.137 109.576 134.137ZM109.419 127.506C108.909 127.506 108.48 127.693 108.134 128.066C107.787 128.436 107.573 128.955 107.491 129.625H111.196V129.529C111.16 128.887 110.987 128.39 110.677 128.039C110.367 127.684 109.948 127.506 109.419 127.506ZM120.192 130.384C120.192 131.514 119.933 132.423 119.413 133.111C118.894 133.795 118.196 134.137 117.321 134.137C116.387 134.137 115.665 133.806 115.154 133.146L115.093 134H113.931V123.5H115.195V127.417C115.706 126.784 116.41 126.467 117.308 126.467C118.205 126.467 118.91 126.806 119.42 127.485C119.935 128.164 120.192 129.094 120.192 130.274V130.384ZM118.928 130.24C118.928 129.379 118.761 128.714 118.429 128.244C118.096 127.775 117.618 127.54 116.993 127.54C116.159 127.54 115.56 127.927 115.195 128.702V131.901C115.583 132.676 116.187 133.063 117.007 133.063C117.613 133.063 118.085 132.829 118.422 132.359C118.759 131.89 118.928 131.184 118.928 130.24ZM121.457 130.233C121.457 129.509 121.598 128.857 121.881 128.278C122.168 127.7 122.564 127.253 123.07 126.938C123.581 126.624 124.162 126.467 124.813 126.467C125.821 126.467 126.634 126.815 127.254 127.513C127.878 128.21 128.19 129.137 128.19 130.295V130.384C128.19 131.104 128.051 131.751 127.773 132.325C127.5 132.895 127.106 133.339 126.591 133.658C126.08 133.977 125.493 134.137 124.827 134.137C123.825 134.137 123.011 133.788 122.387 133.091C121.767 132.394 121.457 131.471 121.457 130.322V130.233ZM122.729 130.384C122.729 131.204 122.918 131.863 123.296 132.359C123.679 132.856 124.189 133.104 124.827 133.104C125.47 133.104 125.98 132.854 126.358 132.353C126.737 131.847 126.926 131.14 126.926 130.233C126.926 129.422 126.732 128.766 126.345 128.265C125.962 127.759 125.451 127.506 124.813 127.506C124.189 127.506 123.686 127.754 123.303 128.251C122.92 128.748 122.729 129.459 122.729 130.384ZM129.441 130.233C129.441 129.509 129.583 128.857 129.865 128.278C130.152 127.7 130.549 127.253 131.055 126.938C131.565 126.624 132.146 126.467 132.798 126.467C133.805 126.467 134.618 126.815 135.238 127.513C135.863 128.21 136.175 129.137 136.175 130.295V130.384C136.175 131.104 136.036 131.751 135.758 132.325C135.484 132.895 135.09 133.339 134.575 133.658C134.065 133.977 133.477 134.137 132.812 134.137C131.809 134.137 130.995 133.788 130.371 133.091C129.751 132.394 129.441 131.471 129.441 130.322V130.233ZM130.713 130.384C130.713 131.204 130.902 131.863 131.28 132.359C131.663 132.856 132.174 133.104 132.812 133.104C133.454 133.104 133.965 132.854 134.343 132.353C134.721 131.847 134.91 131.14 134.91 130.233C134.91 129.422 134.716 128.766 134.329 128.265C133.946 127.759 133.436 127.506 132.798 127.506C132.174 127.506 131.67 127.754 131.287 128.251C130.904 128.748 130.713 129.459 130.713 130.384ZM139.825 130.575L139.032 131.402V134H137.768V123.5H139.032V129.851L139.709 129.037L142.013 126.604H143.551L140.673 129.693L143.886 134H142.402L139.825 130.575Z" fill="#9AA1A9"/>
</g>
</g>
<defs>
<clipPath id="clip0_46_2111">
<rect width="226" height="226" fill="white"/>
</clipPath>
<clipPath id="clip1_46_2111">
<rect width="136" height="55" fill="white" transform="translate(45 86)"/>
</clipPath>
</defs>
</svg>
