<svg width="88" height="88" viewBox="0 0 88 88" fill="none" xmlns="http://www.w3.org/2000/svg">
<path d="M14.6666 22C12.7217 22 10.8565 22.7726 9.4812 24.1479C8.10593 25.5231 7.33331 27.3884 7.33331 29.3333V73.3333C7.33331 77.3666 10.6333 80.6666 14.6666 80.6666H58.6666C60.6116 80.6666 62.4768 79.894 63.8521 78.5188C65.2274 77.1435 66 75.2782 66 73.3333H14.6666V22ZM73.3333 7.33331H29.3333C27.3884 7.33331 25.5231 8.10593 24.1479 9.4812C22.7726 10.8565 22 12.7217 22 14.6666V58.6666C22 60.6116 22.7726 62.4768 24.1479 63.8521C25.5231 65.2274 27.3884 66 29.3333 66H73.3333C75.2782 66 77.1435 65.2274 78.5188 63.8521C79.894 62.4768 80.6666 60.6116 80.6666 58.6666V14.6666C80.6666 12.7217 79.894 10.8565 78.5188 9.4812C77.1435 8.10593 75.2782 7.33331 73.3333 7.33331ZM55 58.6666H29.3333V33H55V58.6666ZM73.3333 58.6666H62.3333V33H73.3333V58.6666ZM73.3333 25.6666H29.3333V14.6666H73.3333V25.6666Z" fill="#F3CD03"/>
</svg>
