<svg width="762" height="356" viewBox="0 0 762 356" fill="none" xmlns="http://www.w3.org/2000/svg">
<g opacity="0.95" filter="url(#filter0_d_28_28)">
<path d="M502.171 23H16V332H732V204.544L700.942 184.526V49.2306H540.131L502.171 23Z" fill="#101010"/>
</g>
<g opacity="0.95" filter="url(#filter1_d_28_28)">
<path d="M545.862 41.0857L497 8H742V201L708.966 179.632V41.0857H545.862Z" fill="#FF3738"/>
</g>
<path d="M66.4434 118.09H63.4492V129H57.4199V99.1406H67.0381C70.0596 99.1406 72.3906 99.9268 74.0312 101.499C75.6855 103.058 76.5127 105.279 76.5127 108.164C76.5127 112.129 75.0703 114.904 72.1855 116.49L77.415 128.713V129H70.9346L66.4434 118.09ZM63.4492 113.065H66.874C68.0771 113.065 68.9795 112.669 69.5811 111.876C70.1826 111.069 70.4834 109.996 70.4834 108.656C70.4834 105.662 69.3145 104.165 66.9766 104.165H63.4492V113.065ZM91.3301 129.41C88.3496 129.41 86.0254 128.521 84.3574 126.744C82.6895 124.967 81.8555 122.424 81.8555 119.115V117.352C81.8555 113.852 82.6211 111.151 84.1523 109.251C85.6836 107.351 87.8779 106.4 90.7354 106.4C93.5244 106.4 95.623 107.296 97.0312 109.087C98.4395 110.864 99.1572 113.503 99.1846 117.003V119.854H87.6387C87.7207 121.494 88.083 122.697 88.7256 123.463C89.3682 124.215 90.3594 124.591 91.6992 124.591C93.6406 124.591 95.2607 123.928 96.5596 122.602L98.8359 126.108C98.125 127.093 97.0928 127.893 95.7393 128.508C94.3857 129.109 92.916 129.41 91.3301 129.41ZM87.6797 115.793H93.4834V115.26C93.4561 113.934 93.2373 112.929 92.8271 112.245C92.417 111.562 91.7061 111.22 90.6943 111.22C89.6826 111.22 88.9443 111.582 88.4795 112.307C88.0283 113.031 87.7617 114.193 87.6797 115.793ZM111.213 101.355V106.811H114.187V111.179H111.213V122.191C111.213 123.066 111.329 123.668 111.562 123.996C111.808 124.324 112.272 124.488 112.956 124.488C113.517 124.488 113.975 124.44 114.33 124.345L114.289 128.856C113.305 129.226 112.238 129.41 111.09 129.41C107.344 129.41 105.45 127.264 105.409 122.971V111.179H102.846V106.811H105.409V101.355H111.213ZM129.927 129C129.763 128.658 129.599 128.084 129.435 127.277C128.396 128.699 126.987 129.41 125.21 129.41C123.351 129.41 121.806 128.795 120.575 127.564C119.358 126.334 118.75 124.741 118.75 122.786C118.75 120.462 119.488 118.664 120.965 117.393C122.455 116.121 124.595 115.472 127.384 115.444H129.147V113.66C129.147 112.662 128.977 111.958 128.635 111.548C128.293 111.138 127.794 110.933 127.138 110.933C125.688 110.933 124.964 111.78 124.964 113.476H119.16C119.16 111.425 119.926 109.736 121.457 108.41C123.002 107.07 124.95 106.4 127.302 106.4C129.735 106.4 131.615 107.036 132.941 108.308C134.281 109.565 134.951 111.37 134.951 113.722V124.16C134.979 126.074 135.252 127.571 135.771 128.651V129H129.927ZM126.502 124.857C127.145 124.857 127.691 124.728 128.143 124.468C128.594 124.208 128.929 123.9 129.147 123.545V118.931H127.753C126.769 118.931 125.989 119.245 125.415 119.874C124.854 120.503 124.574 121.344 124.574 122.396C124.574 124.037 125.217 124.857 126.502 124.857ZM147.246 129H141.422V106.811H147.246V129ZM141.155 101.068C141.155 100.166 141.442 99.4277 142.017 98.8535C142.591 98.2793 143.356 97.9922 144.313 97.9922C145.271 97.9922 146.036 98.2793 146.61 98.8535C147.185 99.4277 147.472 100.166 147.472 101.068C147.472 101.957 147.185 102.695 146.61 103.283C146.05 103.871 145.284 104.165 144.313 104.165C143.343 104.165 142.57 103.871 141.996 103.283C141.436 102.695 141.155 101.957 141.155 101.068ZM159.828 129H154.004V97.5H159.828V129ZM178.286 129V99.1406H186.182C189.668 99.1406 192.443 100.248 194.508 102.463C196.586 104.678 197.646 107.713 197.687 111.568V116.408C197.687 120.332 196.647 123.415 194.569 125.657C192.505 127.886 189.654 129 186.018 129H178.286ZM184.315 104.165V123.996H186.12C188.13 123.996 189.545 123.47 190.365 122.417C191.186 121.351 191.616 119.519 191.657 116.921V111.732C191.657 108.943 191.268 107.002 190.488 105.908C189.709 104.801 188.383 104.22 186.51 104.165H184.315ZM212.709 129.41C209.729 129.41 207.404 128.521 205.736 126.744C204.068 124.967 203.234 122.424 203.234 119.115V117.352C203.234 113.852 204 111.151 205.531 109.251C207.062 107.351 209.257 106.4 212.114 106.4C214.903 106.4 217.002 107.296 218.41 109.087C219.818 110.864 220.536 113.503 220.563 117.003V119.854H209.018C209.1 121.494 209.462 122.697 210.104 123.463C210.747 124.215 211.738 124.591 213.078 124.591C215.02 124.591 216.64 123.928 217.938 122.602L220.215 126.108C219.504 127.093 218.472 127.893 217.118 128.508C215.765 129.109 214.295 129.41 212.709 129.41ZM209.059 115.793H214.862V115.26C214.835 113.934 214.616 112.929 214.206 112.245C213.796 111.562 213.085 111.22 212.073 111.22C211.062 111.22 210.323 111.582 209.858 112.307C209.407 113.031 209.141 114.193 209.059 115.793ZM232.838 120.797L235.647 106.811H241.697L235.606 129H230.069L223.958 106.811H230.028L232.838 120.797ZM255.1 129.41C252.119 129.41 249.795 128.521 248.127 126.744C246.459 124.967 245.625 122.424 245.625 119.115V117.352C245.625 113.852 246.391 111.151 247.922 109.251C249.453 107.351 251.647 106.4 254.505 106.4C257.294 106.4 259.393 107.296 260.801 109.087C262.209 110.864 262.927 113.503 262.954 117.003V119.854H251.408C251.49 121.494 251.853 122.697 252.495 123.463C253.138 124.215 254.129 124.591 255.469 124.591C257.41 124.591 259.03 123.928 260.329 122.602L262.605 126.108C261.895 127.093 260.862 127.893 259.509 128.508C258.155 129.109 256.686 129.41 255.1 129.41ZM251.449 115.793H257.253V115.26C257.226 113.934 257.007 112.929 256.597 112.245C256.187 111.562 255.476 111.22 254.464 111.22C253.452 111.22 252.714 111.582 252.249 112.307C251.798 113.031 251.531 114.193 251.449 115.793ZM274.326 129H268.502V97.5H274.326V129ZM280.141 117.188C280.141 113.824 280.934 111.186 282.52 109.271C284.105 107.357 286.3 106.4 289.103 106.4C291.933 106.4 294.141 107.357 295.727 109.271C297.312 111.186 298.105 113.838 298.105 117.229V118.644C298.105 122.021 297.319 124.659 295.747 126.56C294.175 128.46 291.974 129.41 289.144 129.41C286.3 129.41 284.085 128.46 282.499 126.56C280.927 124.646 280.141 121.993 280.141 118.603V117.188ZM285.965 118.644C285.965 122.608 287.024 124.591 289.144 124.591C291.099 124.591 292.151 122.937 292.302 119.628L292.322 117.188C292.322 115.164 292.042 113.667 291.481 112.696C290.921 111.712 290.128 111.22 289.103 111.22C288.118 111.22 287.346 111.712 286.785 112.696C286.238 113.667 285.965 115.164 285.965 117.188V118.644ZM321.023 118.603C321.023 122.089 320.422 124.762 319.219 126.621C318.029 128.48 316.252 129.41 313.887 129.41C312.082 129.41 310.633 128.679 309.539 127.216V137.531H303.735V106.811H309.108L309.313 108.841C310.421 107.214 311.932 106.4 313.846 106.4C316.211 106.4 317.988 107.262 319.178 108.984C320.381 110.707 320.996 113.346 321.023 116.9V118.603ZM315.24 117.146C315.24 115 315.001 113.482 314.522 112.594C314.058 111.705 313.265 111.261 312.144 111.261C310.954 111.261 310.086 111.76 309.539 112.758V123.155C310.059 124.112 310.94 124.591 312.185 124.591C313.333 124.591 314.126 124.105 314.563 123.135C315.015 122.164 315.24 120.653 315.24 118.603V117.146ZM331.985 106.811L332.149 108.861C333.448 107.221 335.164 106.4 337.297 106.4C339.512 106.4 341.077 107.398 341.993 109.395C343.265 107.398 345.076 106.4 347.428 106.4C351.311 106.4 353.3 109.087 353.396 114.46V129H347.592V114.829C347.592 113.544 347.414 112.628 347.059 112.081C346.703 111.534 346.102 111.261 345.254 111.261C344.174 111.261 343.367 111.924 342.834 113.25L342.875 113.947V129H337.071V114.87C337.071 113.599 336.9 112.683 336.559 112.122C336.217 111.548 335.608 111.261 334.733 111.261C333.735 111.261 332.942 111.801 332.354 112.881V129H326.551V106.811H331.985ZM368.664 129.41C365.684 129.41 363.359 128.521 361.691 126.744C360.023 124.967 359.189 122.424 359.189 119.115V117.352C359.189 113.852 359.955 111.151 361.486 109.251C363.018 107.351 365.212 106.4 368.069 106.4C370.858 106.4 372.957 107.296 374.365 109.087C375.773 110.864 376.491 113.503 376.519 117.003V119.854H364.973C365.055 121.494 365.417 122.697 366.06 123.463C366.702 124.215 367.693 124.591 369.033 124.591C370.975 124.591 372.595 123.928 373.894 122.602L376.17 126.108C375.459 127.093 374.427 127.893 373.073 128.508C371.72 129.109 370.25 129.41 368.664 129.41ZM365.014 115.793H370.817V115.26C370.79 113.934 370.571 112.929 370.161 112.245C369.751 111.562 369.04 111.22 368.028 111.22C367.017 111.22 366.278 111.582 365.813 112.307C365.362 113.031 365.096 114.193 365.014 115.793ZM387.111 106.811L387.275 109.005C388.588 107.269 390.304 106.4 392.423 106.4C396.237 106.4 398.199 109.073 398.309 114.419V129H392.484V114.85C392.484 113.592 392.293 112.683 391.91 112.122C391.541 111.548 390.885 111.261 389.941 111.261C388.889 111.261 388.068 111.801 387.48 112.881V129H381.656V106.811H387.111ZM411.219 101.355V106.811H414.192V111.179H411.219V122.191C411.219 123.066 411.335 123.668 411.567 123.996C411.813 124.324 412.278 124.488 412.962 124.488C413.522 124.488 413.98 124.44 414.336 124.345L414.295 128.856C413.311 129.226 412.244 129.41 411.096 129.41C407.35 129.41 405.456 127.264 405.415 122.971V111.179H402.852V106.811H405.415V101.355H411.219ZM443.971 121.166C443.971 119.949 443.656 119.033 443.027 118.418C442.412 117.789 441.284 117.14 439.644 116.47C436.649 115.335 434.496 114.009 433.184 112.491C431.871 110.96 431.215 109.155 431.215 107.077C431.215 104.562 432.104 102.545 433.881 101.027C435.672 99.4961 437.941 98.7305 440.689 98.7305C442.521 98.7305 444.155 99.1201 445.591 99.8994C447.026 100.665 448.127 101.752 448.893 103.16C449.672 104.568 450.062 106.168 450.062 107.959H444.053C444.053 106.564 443.752 105.505 443.15 104.78C442.562 104.042 441.708 103.673 440.587 103.673C439.534 103.673 438.714 103.987 438.126 104.616C437.538 105.231 437.244 106.065 437.244 107.118C437.244 107.938 437.572 108.684 438.229 109.354C438.885 110.01 440.047 110.693 441.715 111.404C444.627 112.457 446.739 113.749 448.052 115.28C449.378 116.812 450.041 118.76 450.041 121.125C450.041 123.723 449.214 125.753 447.56 127.216C445.905 128.679 443.656 129.41 440.812 129.41C438.885 129.41 437.128 129.014 435.542 128.221C433.956 127.428 432.712 126.293 431.81 124.816C430.921 123.34 430.477 121.597 430.477 119.587H436.526C436.526 121.31 436.861 122.561 437.531 123.34C438.201 124.119 439.295 124.509 440.812 124.509C442.918 124.509 443.971 123.395 443.971 121.166ZM473.041 118.603C473.041 122.089 472.439 124.762 471.236 126.621C470.047 128.48 468.27 129.41 465.904 129.41C464.1 129.41 462.65 128.679 461.557 127.216V137.531H455.753V106.811H461.126L461.331 108.841C462.438 107.214 463.949 106.4 465.863 106.4C468.229 106.4 470.006 107.262 471.195 108.984C472.398 110.707 473.014 113.346 473.041 116.9V118.603ZM467.258 117.146C467.258 115 467.019 113.482 466.54 112.594C466.075 111.705 465.282 111.261 464.161 111.261C462.972 111.261 462.104 111.76 461.557 112.758V123.155C462.076 124.112 462.958 124.591 464.202 124.591C465.351 124.591 466.144 124.105 466.581 123.135C467.032 122.164 467.258 120.653 467.258 118.603V117.146ZM487.51 129.41C484.529 129.41 482.205 128.521 480.537 126.744C478.869 124.967 478.035 122.424 478.035 119.115V117.352C478.035 113.852 478.801 111.151 480.332 109.251C481.863 107.351 484.058 106.4 486.915 106.4C489.704 106.4 491.803 107.296 493.211 109.087C494.619 110.864 495.337 113.503 495.364 117.003V119.854H483.818C483.9 121.494 484.263 122.697 484.905 123.463C485.548 124.215 486.539 124.591 487.879 124.591C489.82 124.591 491.44 123.928 492.739 122.602L495.016 126.108C494.305 127.093 493.272 127.893 491.919 128.508C490.565 129.109 489.096 129.41 487.51 129.41ZM483.859 115.793H489.663V115.26C489.636 113.934 489.417 112.929 489.007 112.245C488.597 111.562 487.886 111.22 486.874 111.22C485.862 111.22 485.124 111.582 484.659 112.307C484.208 113.031 483.941 114.193 483.859 115.793ZM508.664 124.591C510.346 124.591 511.2 123.497 511.228 121.31H516.683C516.655 123.729 515.91 125.685 514.447 127.175C512.984 128.665 511.098 129.41 508.787 129.41C505.93 129.41 503.749 128.521 502.245 126.744C500.741 124.967 499.976 122.349 499.948 118.89V117.126C499.948 113.64 500.687 110.98 502.163 109.148C503.653 107.316 505.848 106.4 508.746 106.4C511.193 106.4 513.121 107.159 514.529 108.677C515.938 110.181 516.655 112.32 516.683 115.096H511.228C511.214 113.852 511.009 112.895 510.612 112.225C510.216 111.555 509.56 111.22 508.644 111.22C507.632 111.22 506.907 111.582 506.47 112.307C506.032 113.018 505.8 114.405 505.772 116.47V118.726C505.772 120.53 505.861 121.795 506.039 122.52C506.217 123.23 506.511 123.757 506.921 124.099C507.331 124.427 507.912 124.591 508.664 124.591ZM528.055 129H522.23V106.811H528.055V129ZM521.964 101.068C521.964 100.166 522.251 99.4277 522.825 98.8535C523.399 98.2793 524.165 97.9922 525.122 97.9922C526.079 97.9922 526.845 98.2793 527.419 98.8535C527.993 99.4277 528.28 100.166 528.28 101.068C528.28 101.957 527.993 102.695 527.419 103.283C526.858 103.871 526.093 104.165 525.122 104.165C524.151 104.165 523.379 103.871 522.805 103.283C522.244 102.695 521.964 101.957 521.964 101.068ZM545.087 129C544.923 128.658 544.759 128.084 544.595 127.277C543.556 128.699 542.147 129.41 540.37 129.41C538.511 129.41 536.966 128.795 535.735 127.564C534.519 126.334 533.91 124.741 533.91 122.786C533.91 120.462 534.648 118.664 536.125 117.393C537.615 116.121 539.755 115.472 542.544 115.444H544.308V113.66C544.308 112.662 544.137 111.958 543.795 111.548C543.453 111.138 542.954 110.933 542.298 110.933C540.849 110.933 540.124 111.78 540.124 113.476H534.32C534.32 111.425 535.086 109.736 536.617 108.41C538.162 107.07 540.11 106.4 542.462 106.4C544.896 106.4 546.775 107.036 548.102 108.308C549.441 109.565 550.111 111.37 550.111 113.722V124.16C550.139 126.074 550.412 127.571 550.932 128.651V129H545.087ZM541.662 124.857C542.305 124.857 542.852 124.728 543.303 124.468C543.754 124.208 544.089 123.9 544.308 123.545V118.931H542.913C541.929 118.931 541.149 119.245 540.575 119.874C540.015 120.503 539.734 121.344 539.734 122.396C539.734 124.037 540.377 124.857 541.662 124.857ZM562.406 129H556.582V97.5H562.406V129ZM574.988 129H569.164V106.811H574.988V129ZM568.897 101.068C568.897 100.166 569.185 99.4277 569.759 98.8535C570.333 98.2793 571.099 97.9922 572.056 97.9922C573.013 97.9922 573.778 98.2793 574.353 98.8535C574.927 99.4277 575.214 100.166 575.214 101.068C575.214 101.957 574.927 102.695 574.353 103.283C573.792 103.871 573.026 104.165 572.056 104.165C571.085 104.165 570.312 103.871 569.738 103.283C569.178 102.695 568.897 101.957 568.897 101.068ZM591.303 123.053C591.303 122.561 591.063 122.109 590.585 121.699C590.12 121.275 589.074 120.708 587.447 119.997C585.055 119.026 583.407 118.021 582.505 116.982C581.616 115.943 581.172 114.651 581.172 113.106C581.172 111.165 581.869 109.565 583.264 108.308C584.672 107.036 586.531 106.4 588.842 106.4C591.275 106.4 593.224 107.029 594.687 108.287C596.149 109.545 596.881 111.233 596.881 113.353H591.077C591.077 111.548 590.325 110.646 588.821 110.646C588.206 110.646 587.7 110.837 587.304 111.22C586.907 111.603 586.709 112.136 586.709 112.819C586.709 113.312 586.928 113.749 587.365 114.132C587.803 114.501 588.835 115.034 590.462 115.731C592.827 116.606 594.495 117.584 595.466 118.664C596.45 119.73 596.942 121.118 596.942 122.827C596.942 124.81 596.197 126.402 594.707 127.605C593.217 128.809 591.262 129.41 588.842 129.41C587.215 129.41 585.779 129.096 584.535 128.467C583.291 127.824 582.313 126.936 581.603 125.801C580.905 124.666 580.557 123.442 580.557 122.13H586.073C586.101 123.142 586.333 123.9 586.771 124.406C587.222 124.912 587.953 125.165 588.965 125.165C590.523 125.165 591.303 124.461 591.303 123.053ZM609.299 101.355V106.811H612.272V111.179H609.299V122.191C609.299 123.066 609.415 123.668 609.647 123.996C609.894 124.324 610.358 124.488 611.042 124.488C611.603 124.488 612.061 124.44 612.416 124.345L612.375 128.856C611.391 129.226 610.324 129.41 609.176 129.41C605.43 129.41 603.536 127.264 603.495 122.971V111.179H600.932V106.811H603.495V101.355H609.299ZM627.295 123.053C627.295 122.561 627.056 122.109 626.577 121.699C626.112 121.275 625.066 120.708 623.439 119.997C621.047 119.026 619.399 118.021 618.497 116.982C617.608 115.943 617.164 114.651 617.164 113.106C617.164 111.165 617.861 109.565 619.256 108.308C620.664 107.036 622.523 106.4 624.834 106.4C627.268 106.4 629.216 107.029 630.679 108.287C632.142 109.545 632.873 111.233 632.873 113.353H627.069C627.069 111.548 626.317 110.646 624.813 110.646C624.198 110.646 623.692 110.837 623.296 111.22C622.899 111.603 622.701 112.136 622.701 112.819C622.701 113.312 622.92 113.749 623.357 114.132C623.795 114.501 624.827 115.034 626.454 115.731C628.819 116.606 630.487 117.584 631.458 118.664C632.442 119.73 632.935 121.118 632.935 122.827C632.935 124.81 632.189 126.402 630.699 127.605C629.209 128.809 627.254 129.41 624.834 129.41C623.207 129.41 621.771 129.096 620.527 128.467C619.283 127.824 618.306 126.936 617.595 125.801C616.897 124.666 616.549 123.442 616.549 122.13H622.065C622.093 123.142 622.325 123.9 622.763 124.406C623.214 124.912 623.945 125.165 624.957 125.165C626.516 125.165 627.295 124.461 627.295 123.053Z" fill="white"/>
<path d="M64.828 173.8C69.56 173.8 72.42 176.192 72.42 180.144C72.42 184.096 69.56 186.488 64.828 186.488H60.33V192H57.73V173.8H64.828ZM64.75 184.226C68.078 184.226 69.82 182.744 69.82 180.144C69.82 177.544 68.078 176.062 64.75 176.062H60.33V184.226H64.75ZM79.0393 180.534C79.9233 178.922 81.6393 178.09 84.0573 178.09V180.508C83.8493 180.482 83.6673 180.482 83.4853 180.482C80.8073 180.482 79.1433 182.12 79.1433 185.136V192H76.6473V178.22H79.0393V180.534ZM93.9086 192.156C89.7746 192.156 86.7326 189.218 86.7326 185.11C86.7326 181.002 89.7746 178.09 93.9086 178.09C98.0426 178.09 101.059 181.002 101.059 185.11C101.059 189.218 98.0426 192.156 93.9086 192.156ZM93.9086 189.972C96.5606 189.972 98.5366 188.048 98.5366 185.11C98.5366 182.172 96.5606 180.274 93.9086 180.274C91.2566 180.274 89.2546 182.172 89.2546 185.11C89.2546 188.048 91.2566 189.972 93.9086 189.972ZM114.88 178.22H117.324L111.292 192H108.744L102.712 178.22H105.312L110.044 189.27L114.88 178.22ZM121.901 175.568C120.939 175.568 120.211 174.866 120.211 173.956C120.211 173.046 120.939 172.318 121.901 172.318C122.863 172.318 123.591 173.02 123.591 173.904C123.591 174.84 122.889 175.568 121.901 175.568ZM120.653 192V178.22H123.149V192H120.653ZM139.419 172.708H141.915V192H139.523V189.816C138.405 191.376 136.637 192.156 134.609 192.156C130.579 192.156 127.641 189.322 127.641 185.11C127.641 180.898 130.579 178.09 134.609 178.09C136.559 178.09 138.275 178.818 139.419 180.3V172.708ZM134.817 189.972C137.443 189.972 139.445 188.048 139.445 185.11C139.445 182.172 137.443 180.274 134.817 180.274C132.165 180.274 130.163 182.172 130.163 185.11C130.163 188.048 132.165 189.972 134.817 189.972ZM148.885 175.568C147.923 175.568 147.195 174.866 147.195 173.956C147.195 173.046 147.923 172.318 148.885 172.318C149.847 172.318 150.575 173.02 150.575 173.904C150.575 174.84 149.873 175.568 148.885 175.568ZM147.637 192V178.22H150.133V192H147.637ZM163.257 178.09C166.611 178.09 168.977 180.014 168.977 184.07V192H166.481V184.356C166.481 181.652 165.129 180.326 162.763 180.326C160.111 180.326 158.395 181.912 158.395 184.902V192H155.899V178.22H158.291V180.3C159.305 178.896 161.073 178.09 163.257 178.09ZM185.489 178.22H187.855V190.128C187.855 194.99 185.385 197.2 180.705 197.2C178.183 197.2 175.635 196.498 174.127 195.146L175.323 193.222C176.597 194.314 178.599 195.016 180.627 195.016C183.877 195.016 185.359 193.508 185.359 190.388V189.296C184.163 190.726 182.369 191.428 180.393 191.428C176.415 191.428 173.399 188.724 173.399 184.746C173.399 180.768 176.415 178.09 180.393 178.09C182.447 178.09 184.319 178.844 185.489 180.352V178.22ZM180.679 189.244C183.435 189.244 185.411 187.398 185.411 184.746C185.411 182.068 183.435 180.274 180.679 180.274C177.897 180.274 175.921 182.068 175.921 184.746C175.921 187.398 177.897 189.244 180.679 189.244ZM220.222 178.22H222.458L217.31 192H214.918L210.94 181.548L206.91 192H204.518L199.396 178.22H201.762L205.766 189.192L209.926 178.22H212.032L216.114 189.244L220.222 178.22ZM231.512 192.156C227.378 192.156 224.336 189.218 224.336 185.11C224.336 181.002 227.378 178.09 231.512 178.09C235.646 178.09 238.662 181.002 238.662 185.11C238.662 189.218 235.646 192.156 231.512 192.156ZM231.512 189.972C234.164 189.972 236.14 188.048 236.14 185.11C236.14 182.172 234.164 180.274 231.512 180.274C228.86 180.274 226.858 182.172 226.858 185.11C226.858 188.048 228.86 189.972 231.512 189.972ZM245.506 180.534C246.39 178.922 248.106 178.09 250.524 178.09V180.508C250.316 180.482 250.134 180.482 249.952 180.482C247.274 180.482 245.61 182.12 245.61 185.136V192H243.114V178.22H245.506V180.534ZM254.6 192V172.708H257.096V192H254.6ZM273.366 172.708H275.862V192H273.47V189.816C272.352 191.376 270.584 192.156 268.556 192.156C264.526 192.156 261.588 189.322 261.588 185.11C261.588 180.898 264.526 178.09 268.556 178.09C270.506 178.09 272.222 178.818 273.366 180.3V172.708ZM268.764 189.972C271.39 189.972 273.392 188.048 273.392 185.11C273.392 182.172 271.39 180.274 268.764 180.274C266.112 180.274 264.11 182.172 264.11 185.11C264.11 188.048 266.112 189.972 268.764 189.972ZM295.573 192.156C291.335 192.156 288.293 189.218 288.293 185.11C288.293 181.002 291.335 178.09 295.573 178.09C298.043 178.09 300.097 179.104 301.189 181.028L299.291 182.25C298.407 180.898 297.055 180.274 295.547 180.274C292.843 180.274 290.815 182.172 290.815 185.11C290.815 188.1 292.843 189.972 295.547 189.972C297.055 189.972 298.407 189.348 299.291 187.996L301.189 189.192C300.097 191.116 298.043 192.156 295.573 192.156ZM305.243 192V172.708H307.739V192H305.243ZM318.523 178.09C322.293 178.09 324.425 179.91 324.425 183.68V192H322.059V190.18C321.227 191.428 319.693 192.156 317.535 192.156C314.415 192.156 312.439 190.492 312.439 188.1C312.439 185.89 313.869 184.07 317.977 184.07H321.929V183.576C321.929 181.47 320.707 180.248 318.237 180.248C316.599 180.248 314.935 180.82 313.869 181.73L312.829 179.858C314.259 178.714 316.313 178.09 318.523 178.09ZM317.951 190.232C319.823 190.232 321.305 189.374 321.929 187.788V185.864H318.081C315.611 185.864 314.909 186.826 314.909 187.996C314.909 189.374 316.053 190.232 317.951 190.232ZM333.996 192.156C331.708 192.156 329.446 191.454 328.302 190.544L329.342 188.568C330.512 189.4 332.384 189.998 334.178 189.998C336.492 189.998 337.454 189.296 337.454 188.126C337.454 185.032 328.744 187.71 328.744 182.224C328.744 179.754 330.954 178.09 334.49 178.09C336.284 178.09 338.312 178.558 339.508 179.338L338.442 181.314C337.194 180.508 335.816 180.222 334.464 180.222C332.28 180.222 331.214 181.028 331.214 182.12C331.214 185.37 339.95 182.718 339.95 188.074C339.95 190.57 337.662 192.156 333.996 192.156ZM348.021 192.156C345.733 192.156 343.471 191.454 342.327 190.544L343.367 188.568C344.537 189.4 346.409 189.998 348.203 189.998C350.517 189.998 351.479 189.296 351.479 188.126C351.479 185.032 342.769 187.71 342.769 182.224C342.769 179.754 344.979 178.09 348.515 178.09C350.309 178.09 352.337 178.558 353.533 179.338L352.467 181.314C351.219 180.508 349.841 180.222 348.489 180.222C346.305 180.222 345.239 181.028 345.239 182.12C345.239 185.37 353.975 182.718 353.975 188.074C353.975 190.57 351.687 192.156 348.021 192.156ZM373.539 173.8C378.271 173.8 381.131 176.192 381.131 180.144C381.131 184.096 378.271 186.488 373.539 186.488H369.041V192H366.441V173.8H373.539ZM373.461 184.226C376.789 184.226 378.531 182.744 378.531 180.144C378.531 177.544 376.789 176.062 373.461 176.062H369.041V184.226H373.461ZM387.75 180.534C388.634 178.922 390.35 178.09 392.768 178.09V180.508C392.56 180.482 392.378 180.482 392.196 180.482C389.518 180.482 387.854 182.12 387.854 185.136V192H385.358V178.22H387.75V180.534ZM402.62 192.156C398.486 192.156 395.444 189.218 395.444 185.11C395.444 181.002 398.486 178.09 402.62 178.09C406.754 178.09 409.77 181.002 409.77 185.11C409.77 189.218 406.754 192.156 402.62 192.156ZM402.62 189.972C405.272 189.972 407.248 188.048 407.248 185.11C407.248 182.172 405.272 180.274 402.62 180.274C399.968 180.274 397.966 182.172 397.966 185.11C397.966 188.048 399.968 189.972 402.62 189.972ZM415.599 175.568C414.637 175.568 413.909 174.866 413.909 173.956C413.909 173.046 414.637 172.318 415.599 172.318C416.561 172.318 417.289 173.02 417.289 173.904C417.289 174.84 416.587 175.568 415.599 175.568ZM412.453 197.2C411.309 197.2 410.165 196.94 409.463 196.368L410.269 194.444C410.763 194.86 411.491 195.094 412.297 195.094C413.623 195.094 414.351 194.262 414.351 192.676V178.22H416.847V192.624C416.847 195.432 415.287 197.2 412.453 197.2ZM435.064 185.188C435.064 185.396 435.038 185.708 435.012 185.942H423.832C424.144 188.36 426.094 189.972 428.824 189.972C430.436 189.972 431.788 189.426 432.802 188.308L434.18 189.92C432.932 191.376 431.034 192.156 428.746 192.156C424.3 192.156 421.336 189.218 421.336 185.11C421.336 181.028 424.274 178.09 428.252 178.09C432.23 178.09 435.064 180.95 435.064 185.188ZM428.252 180.196C425.86 180.196 424.092 181.808 423.832 184.148H432.672C432.412 181.834 430.67 180.196 428.252 180.196ZM445.536 192.156C441.298 192.156 438.256 189.218 438.256 185.11C438.256 181.002 441.298 178.09 445.536 178.09C448.006 178.09 450.06 179.104 451.152 181.028L449.254 182.25C448.37 180.898 447.018 180.274 445.51 180.274C442.806 180.274 440.778 182.172 440.778 185.11C440.778 188.1 442.806 189.972 445.51 189.972C447.018 189.972 448.37 189.348 449.254 187.996L451.152 189.192C450.06 191.116 448.006 192.156 445.536 192.156ZM462.529 189.4L463.309 191.194C462.555 191.844 461.411 192.156 460.293 192.156C457.511 192.156 455.925 190.622 455.925 187.84V180.274H453.585V178.22H455.925V175.204H458.421V178.22H462.373V180.274H458.421V187.736C458.421 189.218 459.201 190.05 460.579 190.05C461.307 190.05 462.009 189.816 462.529 189.4ZM495.043 192H492.547L492.521 178.74L485.943 189.79H484.747L478.169 178.818V192H475.673V173.8H477.805L485.397 186.592L492.885 173.8H495.017L495.043 192ZM506.159 178.09C509.929 178.09 512.061 179.91 512.061 183.68V192H509.695V190.18C508.863 191.428 507.329 192.156 505.171 192.156C502.051 192.156 500.075 190.492 500.075 188.1C500.075 185.89 501.505 184.07 505.613 184.07H509.565V183.576C509.565 181.47 508.343 180.248 505.873 180.248C504.235 180.248 502.571 180.82 501.505 181.73L500.465 179.858C501.895 178.714 503.949 178.09 506.159 178.09ZM505.587 190.232C507.459 190.232 508.941 189.374 509.565 187.788V185.864H505.717C503.247 185.864 502.545 186.826 502.545 187.996C502.545 189.374 503.689 190.232 505.587 190.232ZM525.038 178.09C528.392 178.09 530.758 180.014 530.758 184.07V192H528.262V184.356C528.262 181.652 526.91 180.326 524.544 180.326C521.892 180.326 520.176 181.912 520.176 184.902V192H517.68V178.22H520.072V180.3C521.086 178.896 522.854 178.09 525.038 178.09ZM541.396 178.09C545.166 178.09 547.298 179.91 547.298 183.68V192H544.932V190.18C544.1 191.428 542.566 192.156 540.408 192.156C537.288 192.156 535.312 190.492 535.312 188.1C535.312 185.89 536.742 184.07 540.85 184.07H544.802V183.576C544.802 181.47 543.58 180.248 541.11 180.248C539.472 180.248 537.808 180.82 536.742 181.73L535.702 179.858C537.132 178.714 539.186 178.09 541.396 178.09ZM540.824 190.232C542.696 190.232 544.178 189.374 544.802 187.788V185.864H540.954C538.484 185.864 537.782 186.826 537.782 187.996C537.782 189.374 538.926 190.232 540.824 190.232ZM563.809 178.22H566.175V190.128C566.175 194.99 563.705 197.2 559.025 197.2C556.503 197.2 553.955 196.498 552.447 195.146L553.643 193.222C554.917 194.314 556.919 195.016 558.947 195.016C562.197 195.016 563.679 193.508 563.679 190.388V189.296C562.483 190.726 560.689 191.428 558.713 191.428C554.735 191.428 551.719 188.724 551.719 184.746C551.719 180.768 554.735 178.09 558.713 178.09C560.767 178.09 562.639 178.844 563.809 180.352V178.22ZM558.999 189.244C561.755 189.244 563.731 187.398 563.731 184.746C563.731 182.068 561.755 180.274 558.999 180.274C556.217 180.274 554.241 182.068 554.241 184.746C554.241 187.398 556.217 189.244 558.999 189.244ZM584.398 185.188C584.398 185.396 584.372 185.708 584.346 185.942H573.166C573.478 188.36 575.428 189.972 578.158 189.972C579.77 189.972 581.122 189.426 582.136 188.308L583.514 189.92C582.266 191.376 580.368 192.156 578.08 192.156C573.634 192.156 570.67 189.218 570.67 185.11C570.67 181.028 573.608 178.09 577.586 178.09C581.564 178.09 584.398 180.95 584.398 185.188ZM577.586 180.196C575.194 180.196 573.426 181.808 573.166 184.148H582.006C581.746 181.834 580.004 180.196 577.586 180.196ZM606.102 178.09C609.456 178.09 611.744 180.014 611.744 184.07V192H609.248V184.356C609.248 181.652 607.948 180.326 605.686 180.326C603.19 180.326 601.552 181.912 601.552 184.902V192H599.056V184.356C599.056 181.652 597.756 180.326 595.494 180.326C592.998 180.326 591.36 181.912 591.36 184.902V192H588.864V178.22H591.256V180.274C592.244 178.87 593.934 178.09 596.014 178.09C598.12 178.09 599.888 178.922 600.798 180.638C601.838 179.078 603.762 178.09 606.102 178.09ZM629.867 185.188C629.867 185.396 629.841 185.708 629.815 185.942H618.635C618.947 188.36 620.897 189.972 623.627 189.972C625.239 189.972 626.591 189.426 627.605 188.308L628.983 189.92C627.735 191.376 625.837 192.156 623.549 192.156C619.103 192.156 616.139 189.218 616.139 185.11C616.139 181.028 619.077 178.09 623.055 178.09C627.033 178.09 629.867 180.95 629.867 185.188ZM623.055 180.196C620.663 180.196 618.895 181.808 618.635 184.148H627.475C627.215 181.834 625.473 180.196 623.055 180.196ZM641.691 178.09C645.045 178.09 647.411 180.014 647.411 184.07V192H644.915V184.356C644.915 181.652 643.563 180.326 641.197 180.326C638.545 180.326 636.829 181.912 636.829 184.902V192H634.333V178.22H636.725V180.3C637.739 178.896 639.507 178.09 641.691 178.09ZM659.998 189.4L660.778 191.194C660.024 191.844 658.88 192.156 657.762 192.156C654.98 192.156 653.394 190.622 653.394 187.84V180.274H651.054V178.22H653.394V175.204H655.89V178.22H659.842V180.274H655.89V187.736C655.89 189.218 656.67 190.05 658.048 190.05C658.776 190.05 659.478 189.816 659.998 189.4ZM62.384 218.09C66.154 218.09 68.286 219.91 68.286 223.68V232H65.92V230.18C65.088 231.428 63.554 232.156 61.396 232.156C58.276 232.156 56.3 230.492 56.3 228.1C56.3 225.89 57.73 224.07 61.838 224.07H65.79V223.576C65.79 221.47 64.568 220.248 62.098 220.248C60.46 220.248 58.796 220.82 57.73 221.73L56.69 219.858C58.12 218.714 60.174 218.09 62.384 218.09ZM61.812 230.232C63.684 230.232 65.166 229.374 65.79 227.788V225.864H61.942C59.472 225.864 58.77 226.826 58.77 227.996C58.77 229.374 59.914 230.232 61.812 230.232ZM81.2631 218.09C84.6171 218.09 86.9831 220.014 86.9831 224.07V232H84.4871V224.356C84.4871 221.652 83.1351 220.326 80.7691 220.326C78.1171 220.326 76.4011 221.912 76.4011 224.902V232H73.9051V218.22H76.2971V220.3C77.3111 218.896 79.0791 218.09 81.2631 218.09ZM103.183 212.708H105.679V232H103.287V229.816C102.169 231.376 100.401 232.156 98.3725 232.156C94.3425 232.156 91.4045 229.322 91.4045 225.11C91.4045 220.898 94.3425 218.09 98.3725 218.09C100.323 218.09 102.039 218.818 103.183 220.3V212.708ZM98.5805 229.972C101.207 229.972 103.209 228.048 103.209 225.11C103.209 222.172 101.207 220.274 98.5805 220.274C95.9285 220.274 93.9265 222.172 93.9265 225.11C93.9265 228.048 95.9285 229.972 98.5805 229.972ZM127.886 232.208C122.374 232.208 118.266 228.282 118.266 222.9C118.266 217.518 122.374 213.592 127.912 213.592C130.72 213.592 133.164 214.554 134.828 216.426L133.138 218.064C131.734 216.582 130.018 215.906 128.016 215.906C123.908 215.906 120.866 218.87 120.866 222.9C120.866 226.93 123.908 229.894 128.016 229.894C130.018 229.894 131.734 229.192 133.138 227.71L134.828 229.348C133.164 231.22 130.72 232.208 127.886 232.208ZM144.491 232.156C140.357 232.156 137.315 229.218 137.315 225.11C137.315 221.002 140.357 218.09 144.491 218.09C148.625 218.09 151.641 221.002 151.641 225.11C151.641 229.218 148.625 232.156 144.491 232.156ZM144.491 229.972C147.143 229.972 149.119 228.048 149.119 225.11C149.119 222.172 147.143 220.274 144.491 220.274C141.839 220.274 139.837 222.172 139.837 225.11C139.837 228.048 141.839 229.972 144.491 229.972ZM160.045 232.156C157.757 232.156 155.495 231.454 154.351 230.544L155.391 228.568C156.561 229.4 158.433 229.998 160.227 229.998C162.541 229.998 163.503 229.296 163.503 228.126C163.503 225.032 154.793 227.71 154.793 222.224C154.793 219.754 157.003 218.09 160.539 218.09C162.333 218.09 164.361 218.558 165.557 219.338L164.491 221.314C163.243 220.508 161.865 220.222 160.513 220.222C158.329 220.222 157.263 221.028 157.263 222.12C157.263 225.37 165.999 222.718 165.999 228.074C165.999 230.57 163.711 232.156 160.045 232.156ZM177.086 229.4L177.866 231.194C177.112 231.844 175.968 232.156 174.85 232.156C172.068 232.156 170.482 230.622 170.482 227.84V220.274H168.142V218.22H170.482V215.204H172.978V218.22H176.93V220.274H172.978V227.736C172.978 229.218 173.758 230.05 175.136 230.05C175.864 230.05 176.566 229.816 177.086 229.4ZM209.6 232H207.104L207.078 218.74L200.5 229.79H199.304L192.726 218.818V232H190.23V213.8H192.362L199.954 226.592L207.442 213.8H209.574L209.6 232ZM220.716 218.09C224.486 218.09 226.618 219.91 226.618 223.68V232H224.252V230.18C223.42 231.428 221.886 232.156 219.728 232.156C216.608 232.156 214.632 230.492 214.632 228.1C214.632 225.89 216.062 224.07 220.17 224.07H224.122V223.576C224.122 221.47 222.9 220.248 220.43 220.248C218.792 220.248 217.128 220.82 216.062 221.73L215.022 219.858C216.452 218.714 218.506 218.09 220.716 218.09ZM220.144 230.232C222.016 230.232 223.498 229.374 224.122 227.788V225.864H220.274C217.804 225.864 217.102 226.826 217.102 227.996C217.102 229.374 218.246 230.232 220.144 230.232ZM239.595 218.09C242.949 218.09 245.315 220.014 245.315 224.07V232H242.819V224.356C242.819 221.652 241.467 220.326 239.101 220.326C236.449 220.326 234.733 221.912 234.733 224.902V232H232.237V218.22H234.629V220.3C235.643 218.896 237.411 218.09 239.595 218.09ZM255.952 218.09C259.722 218.09 261.854 219.91 261.854 223.68V232H259.488V230.18C258.656 231.428 257.122 232.156 254.964 232.156C251.844 232.156 249.868 230.492 249.868 228.1C249.868 225.89 251.298 224.07 255.406 224.07H259.358V223.576C259.358 221.47 258.136 220.248 255.666 220.248C254.028 220.248 252.364 220.82 251.298 221.73L250.258 219.858C251.688 218.714 253.742 218.09 255.952 218.09ZM255.38 230.232C257.252 230.232 258.734 229.374 259.358 227.788V225.864H255.51C253.04 225.864 252.338 226.826 252.338 227.996C252.338 229.374 253.482 230.232 255.38 230.232ZM278.366 218.22H280.732V230.128C280.732 234.99 278.262 237.2 273.582 237.2C271.06 237.2 268.512 236.498 267.004 235.146L268.2 233.222C269.474 234.314 271.476 235.016 273.504 235.016C276.754 235.016 278.236 233.508 278.236 230.388V229.296C277.04 230.726 275.246 231.428 273.27 231.428C269.292 231.428 266.276 228.724 266.276 224.746C266.276 220.768 269.292 218.09 273.27 218.09C275.324 218.09 277.196 218.844 278.366 220.352V218.22ZM273.556 229.244C276.312 229.244 278.288 227.398 278.288 224.746C278.288 222.068 276.312 220.274 273.556 220.274C270.774 220.274 268.798 222.068 268.798 224.746C268.798 227.398 270.774 229.244 273.556 229.244ZM298.955 225.188C298.955 225.396 298.929 225.708 298.903 225.942H287.723C288.035 228.36 289.985 229.972 292.715 229.972C294.327 229.972 295.679 229.426 296.693 228.308L298.071 229.92C296.823 231.376 294.925 232.156 292.637 232.156C288.191 232.156 285.227 229.218 285.227 225.11C285.227 221.028 288.165 218.09 292.143 218.09C296.121 218.09 298.955 220.95 298.955 225.188ZM292.143 220.196C289.751 220.196 287.983 221.808 287.723 224.148H296.563C296.303 221.834 294.561 220.196 292.143 220.196ZM320.659 218.09C324.013 218.09 326.301 220.014 326.301 224.07V232H323.805V224.356C323.805 221.652 322.505 220.326 320.243 220.326C317.747 220.326 316.109 221.912 316.109 224.902V232H313.613V224.356C313.613 221.652 312.313 220.326 310.051 220.326C307.555 220.326 305.917 221.912 305.917 224.902V232H303.421V218.22H305.813V220.274C306.801 218.87 308.491 218.09 310.571 218.09C312.677 218.09 314.445 218.922 315.355 220.638C316.395 219.078 318.319 218.09 320.659 218.09ZM344.424 225.188C344.424 225.396 344.398 225.708 344.372 225.942H333.192C333.504 228.36 335.454 229.972 338.184 229.972C339.796 229.972 341.148 229.426 342.162 228.308L343.54 229.92C342.292 231.376 340.394 232.156 338.106 232.156C333.66 232.156 330.696 229.218 330.696 225.11C330.696 221.028 333.634 218.09 337.612 218.09C341.59 218.09 344.424 220.95 344.424 225.188ZM337.612 220.196C335.22 220.196 333.452 221.808 333.192 224.148H342.032C341.772 221.834 340.03 220.196 337.612 220.196ZM356.247 218.09C359.601 218.09 361.967 220.014 361.967 224.07V232H359.471V224.356C359.471 221.652 358.119 220.326 355.753 220.326C353.101 220.326 351.385 221.912 351.385 224.902V232H348.889V218.22H351.281V220.3C352.295 218.896 354.063 218.09 356.247 218.09ZM374.555 229.4L375.335 231.194C374.581 231.844 373.437 232.156 372.319 232.156C369.537 232.156 367.951 230.622 367.951 227.84V220.274H365.611V218.22H367.951V215.204H370.447V218.22H374.399V220.274H370.447V227.736C370.447 229.218 371.227 230.05 372.605 230.05C373.333 230.05 374.035 229.816 374.555 229.4ZM391.287 232.156C388.999 232.156 386.737 231.454 385.593 230.544L386.633 228.568C387.803 229.4 389.675 229.998 391.469 229.998C393.783 229.998 394.745 229.296 394.745 228.126C394.745 225.032 386.035 227.71 386.035 222.224C386.035 219.754 388.245 218.09 391.781 218.09C393.575 218.09 395.603 218.558 396.799 219.338L395.733 221.314C394.485 220.508 393.107 220.222 391.755 220.222C389.571 220.222 388.505 221.028 388.505 222.12C388.505 225.37 397.241 222.718 397.241 228.074C397.241 230.57 394.953 232.156 391.287 232.156ZM413.814 225.188C413.814 225.396 413.788 225.708 413.762 225.942H402.582C402.894 228.36 404.844 229.972 407.574 229.972C409.186 229.972 410.538 229.426 411.552 228.308L412.93 229.92C411.682 231.376 409.784 232.156 407.496 232.156C403.05 232.156 400.086 229.218 400.086 225.11C400.086 221.028 403.024 218.09 407.002 218.09C410.98 218.09 413.814 220.95 413.814 225.188ZM407.002 220.196C404.61 220.196 402.842 221.808 402.582 224.148H411.422C411.162 221.834 409.42 220.196 407.002 220.196ZM420.672 220.534C421.556 218.922 423.272 218.09 425.69 218.09V220.508C425.482 220.482 425.3 220.482 425.118 220.482C422.44 220.482 420.776 222.12 420.776 225.136V232H418.28V218.22H420.672V220.534ZM440.075 218.22H442.519L436.487 232H433.939L427.907 218.22H430.507L435.239 229.27L440.075 218.22ZM447.096 215.568C446.134 215.568 445.406 214.866 445.406 213.956C445.406 213.046 446.134 212.318 447.096 212.318C448.058 212.318 448.786 213.02 448.786 213.904C448.786 214.84 448.084 215.568 447.096 215.568ZM445.848 232V218.22H448.344V232H445.848ZM460.116 232.156C455.878 232.156 452.836 229.218 452.836 225.11C452.836 221.002 455.878 218.09 460.116 218.09C462.586 218.09 464.64 219.104 465.732 221.028L463.834 222.25C462.95 220.898 461.598 220.274 460.09 220.274C457.386 220.274 455.358 222.172 455.358 225.11C455.358 228.1 457.386 229.972 460.09 229.972C461.598 229.972 462.95 229.348 463.834 227.996L465.732 229.192C464.64 231.116 462.586 232.156 460.116 232.156ZM482.215 225.188C482.215 225.396 482.189 225.708 482.163 225.942H470.983C471.295 228.36 473.245 229.972 475.975 229.972C477.587 229.972 478.939 229.426 479.953 228.308L481.331 229.92C480.083 231.376 478.185 232.156 475.897 232.156C471.451 232.156 468.487 229.218 468.487 225.11C468.487 221.028 471.425 218.09 475.403 218.09C479.381 218.09 482.215 220.95 482.215 225.188ZM475.403 220.196C473.011 220.196 471.243 221.808 470.983 224.148H479.823C479.563 221.834 477.821 220.196 475.403 220.196ZM490.632 232.156C488.344 232.156 486.082 231.454 484.938 230.544L485.978 228.568C487.148 229.4 489.02 229.998 490.814 229.998C493.128 229.998 494.09 229.296 494.09 228.126C494.09 225.032 485.38 227.71 485.38 222.224C485.38 219.754 487.59 218.09 491.126 218.09C492.92 218.09 494.948 218.558 496.144 219.338L495.078 221.314C493.83 220.508 492.452 220.222 491.1 220.222C488.916 220.222 487.85 221.028 487.85 222.12C487.85 225.37 496.586 222.718 496.586 228.074C496.586 230.57 494.298 232.156 490.632 232.156ZM509.936 215.568C508.974 215.568 508.246 214.866 508.246 213.956C508.246 213.046 508.974 212.318 509.936 212.318C510.898 212.318 511.626 213.02 511.626 213.904C511.626 214.84 510.924 215.568 509.936 215.568ZM508.688 232V218.22H511.184V232H508.688ZM524.308 218.09C527.662 218.09 530.028 220.014 530.028 224.07V232H527.532V224.356C527.532 221.652 526.18 220.326 523.814 220.326C521.162 220.326 519.446 221.912 519.446 224.902V232H516.95V218.22H519.342V220.3C520.356 218.896 522.124 218.09 524.308 218.09ZM550.598 229.4L551.378 231.194C550.624 231.844 549.48 232.156 548.362 232.156C545.58 232.156 543.994 230.622 543.994 227.84V220.274H541.654V218.22H543.994V215.204H546.49V218.22H550.442V220.274H546.49V227.736C546.49 229.218 547.27 230.05 548.648 230.05C549.376 230.05 550.078 229.816 550.598 229.4ZM562.753 218.09C566.107 218.09 568.473 220.014 568.473 224.07V232H565.977V224.356C565.977 221.652 564.625 220.326 562.259 220.326C559.607 220.326 557.891 221.912 557.891 224.902V232H555.395V212.708H557.891V220.17C558.931 218.844 560.647 218.09 562.753 218.09ZM586.623 225.188C586.623 225.396 586.597 225.708 586.571 225.942H575.391C575.703 228.36 577.653 229.972 580.383 229.972C581.995 229.972 583.347 229.426 584.361 228.308L585.739 229.92C584.491 231.376 582.593 232.156 580.305 232.156C575.859 232.156 572.895 229.218 572.895 225.11C572.895 221.028 575.833 218.09 579.811 218.09C583.789 218.09 586.623 220.95 586.623 225.188ZM579.811 220.196C577.419 220.196 575.651 221.808 575.391 224.148H584.231C583.971 221.834 582.229 220.196 579.811 220.196ZM72.732 272H69.898L65.972 266.41C65.608 266.436 65.218 266.462 64.828 266.462H60.33V272H57.73V253.8H64.828C69.56 253.8 72.42 256.192 72.42 260.144C72.42 262.952 70.964 264.98 68.416 265.89L72.732 272ZM64.75 264.252C68.078 264.252 69.82 262.744 69.82 260.144C69.82 257.544 68.078 256.062 64.75 256.062H60.33V264.252H64.75ZM89.7106 265.188C89.7106 265.396 89.6846 265.708 89.6586 265.942H78.4786C78.7906 268.36 80.7406 269.972 83.4706 269.972C85.0826 269.972 86.4346 269.426 87.4486 268.308L88.8266 269.92C87.5786 271.376 85.6806 272.156 83.3926 272.156C78.9466 272.156 75.9826 269.218 75.9826 265.11C75.9826 261.028 78.9206 258.09 82.8986 258.09C86.8766 258.09 89.7106 260.95 89.7106 265.188ZM82.8986 260.196C80.5066 260.196 78.7386 261.808 78.4786 264.148H87.3186C87.0586 261.834 85.3166 260.196 82.8986 260.196ZM101.145 269.4L101.925 271.194C101.171 271.844 100.027 272.156 98.9085 272.156C96.1265 272.156 94.5405 270.622 94.5405 267.84V260.274H92.2005V258.22H94.5405V255.204H97.0365V258.22H100.989V260.274H97.0365V267.736C97.0365 269.218 97.8165 270.05 99.1945 270.05C99.9225 270.05 100.625 269.816 101.145 269.4ZM110.96 258.09C114.73 258.09 116.862 259.91 116.862 263.68V272H114.496V270.18C113.664 271.428 112.13 272.156 109.972 272.156C106.852 272.156 104.876 270.492 104.876 268.1C104.876 265.89 106.306 264.07 110.414 264.07H114.366V263.576C114.366 261.47 113.144 260.248 110.674 260.248C109.036 260.248 107.372 260.82 106.306 261.73L105.266 259.858C106.696 258.714 108.75 258.09 110.96 258.09ZM110.388 270.232C112.26 270.232 113.742 269.374 114.366 267.788V265.864H110.518C108.048 265.864 107.346 266.826 107.346 267.996C107.346 269.374 108.49 270.232 110.388 270.232ZM123.729 255.568C122.767 255.568 122.039 254.866 122.039 253.956C122.039 253.046 122.767 252.318 123.729 252.318C124.691 252.318 125.419 253.02 125.419 253.904C125.419 254.84 124.717 255.568 123.729 255.568ZM122.481 272V258.22H124.977V272H122.481ZM130.743 272V252.708H133.239V272H130.743ZM150.939 272.156C148.651 272.156 146.389 271.454 145.245 270.544L146.285 268.568C147.455 269.4 149.327 269.998 151.121 269.998C153.435 269.998 154.397 269.296 154.397 268.126C154.397 265.032 145.687 267.71 145.687 262.224C145.687 259.754 147.897 258.09 151.433 258.09C153.227 258.09 155.255 258.558 156.451 259.338L155.385 261.314C154.137 260.508 152.759 260.222 151.407 260.222C149.223 260.222 148.157 261.028 148.157 262.12C148.157 265.37 156.893 262.718 156.893 268.074C156.893 270.57 154.605 272.156 150.939 272.156ZM173.466 265.188C173.466 265.396 173.44 265.708 173.414 265.942H162.234C162.546 268.36 164.496 269.972 167.226 269.972C168.838 269.972 170.19 269.426 171.204 268.308L172.582 269.92C171.334 271.376 169.436 272.156 167.148 272.156C162.702 272.156 159.738 269.218 159.738 265.11C159.738 261.028 162.676 258.09 166.654 258.09C170.632 258.09 173.466 260.95 173.466 265.188ZM166.654 260.196C164.262 260.196 162.494 261.808 162.234 264.148H171.074C170.814 261.834 169.072 260.196 166.654 260.196ZM183.938 272.156C179.7 272.156 176.658 269.218 176.658 265.11C176.658 261.002 179.7 258.09 183.938 258.09C186.408 258.09 188.462 259.104 189.554 261.028L187.656 262.25C186.772 260.898 185.42 260.274 183.912 260.274C181.208 260.274 179.18 262.172 179.18 265.11C179.18 268.1 181.208 269.972 183.912 269.972C185.42 269.972 186.772 269.348 187.656 267.996L189.554 269.192C188.462 271.116 186.408 272.156 183.938 272.156ZM200.932 269.4L201.712 271.194C200.958 271.844 199.814 272.156 198.696 272.156C195.914 272.156 194.328 270.622 194.328 267.84V260.274H191.988V258.22H194.328V255.204H196.824V258.22H200.776V260.274H196.824V267.736C196.824 269.218 197.604 270.05 198.982 270.05C199.71 270.05 200.412 269.816 200.932 269.4ZM211.174 272.156C207.04 272.156 203.998 269.218 203.998 265.11C203.998 261.002 207.04 258.09 211.174 258.09C215.308 258.09 218.324 261.002 218.324 265.11C218.324 269.218 215.308 272.156 211.174 272.156ZM211.174 269.972C213.826 269.972 215.802 268.048 215.802 265.11C215.802 262.172 213.826 260.274 211.174 260.274C208.522 260.274 206.52 262.172 206.52 265.11C206.52 268.048 208.522 269.972 211.174 269.972ZM225.168 260.534C226.052 258.922 227.768 258.09 230.186 258.09V260.508C229.978 260.482 229.796 260.482 229.614 260.482C226.936 260.482 225.272 262.12 225.272 265.136V272H222.776V258.22H225.168V260.534Z" fill="white"/>
<defs>
<filter id="filter0_d_28_28" x="0" y="15" width="748" height="341" filterUnits="userSpaceOnUse" color-interpolation-filters="sRGB">
<feFlood flood-opacity="0" result="BackgroundImageFix"/>
<feColorMatrix in="SourceAlpha" type="matrix" values="0 0 0 0 0 0 0 0 0 0 0 0 0 0 0 0 0 0 127 0" result="hardAlpha"/>
<feOffset dy="8"/>
<feGaussianBlur stdDeviation="8"/>
<feComposite in2="hardAlpha" operator="out"/>
<feColorMatrix type="matrix" values="0 0 0 0 0 0 0 0 0 0 0 0 0 0 0 0 0 0 0.15 0"/>
<feBlend mode="normal" in2="BackgroundImageFix" result="effect1_dropShadow_28_28"/>
<feBlend mode="normal" in="SourceGraphic" in2="effect1_dropShadow_28_28" result="shape"/>
</filter>
<filter id="filter1_d_28_28" x="477" y="0" width="285" height="233" filterUnits="userSpaceOnUse" color-interpolation-filters="sRGB">
<feFlood flood-opacity="0" result="BackgroundImageFix"/>
<feColorMatrix in="SourceAlpha" type="matrix" values="0 0 0 0 0 0 0 0 0 0 0 0 0 0 0 0 0 0 127 0" result="hardAlpha"/>
<feOffset dy="12"/>
<feGaussianBlur stdDeviation="10"/>
<feComposite in2="hardAlpha" operator="out"/>
<feColorMatrix type="matrix" values="0 0 0 0 0 0 0 0 0 0 0 0 0 0 0 0 0 0 0.15 0"/>
<feBlend mode="normal" in2="BackgroundImageFix" result="effect1_dropShadow_28_28"/>
<feBlend mode="normal" in="SourceGraphic" in2="effect1_dropShadow_28_28" result="shape"/>
</filter>
</defs>
</svg>
